<svg xmlns="http://www.w3.org/2000/svg" viewBox="0 0 512 512"><rect width="512" height="512" fill="#7a1f2b"/><circle cx="256" cy="200" r="150" fill="#f28c28" opacity=".22"/><path d="M256 92l14 22h-28z" fill="#f1d48a"/><path d="M256 110c-18 40-60 90-60 150v40h120v-40c0-60-42-110-60-150z" fill="#d4a437"/><path d="M168 300c0-30 20-52 34-60v60zM344 300c0-30-20-52-34-60v60z" fill="#d4a437"/><rect x="150" y="300" width="212" height="22" rx="4" fill="#f1d48a"/><g fill="none" stroke="#f1d48a" stroke-width="12" stroke-linecap="round"><path d="M120 362q34-18 68 0t68 0 68 0 68 0"/><path d="M150 404q27-14 53 0t53 0 53 0 53 0" opacity=".7"/></g></svg>
